<?xml version="1.0" encoding="UTF-8" standalone="no"?>
<!-- Created with Inkscape (http://www.inkscape.org/) -->

<svg
   xmlns:dc="http://purl.org/dc/elements/1.1/"
   xmlns:cc="http://creativecommons.org/ns#"
   xmlns:rdf="http://www.w3.org/1999/02/22-rdf-syntax-ns#"
   xmlns:svg="http://www.w3.org/2000/svg"
   xmlns="http://www.w3.org/2000/svg"
   xmlns:sodipodi="http://sodipodi.sourceforge.net/DTD/sodipodi-0.dtd"
   xmlns:inkscape="http://www.inkscape.org/namespaces/inkscape"
   height="1052.3622"
   id="svg1095"
   version="1.0"
   width="744.09448"
   x="0.0000000"
   y="0.0000000"
   inkscape:version="0.48.2 r9819"
   sodipodi:docname="work_in_progress.svg"
   inkscape:export-filename="/home/tomek/btgt/images/work_in_progress_low.png"
   inkscape:export-xdpi="72"
   inkscape:export-ydpi="72">
  <sodipodi:namedview
     pagecolor="#ffffff"
     bordercolor="#666666"
     borderopacity="1"
     objecttolerance="10"
     gridtolerance="10"
     guidetolerance="10"
     inkscape:pageopacity="0"
     inkscape:pageshadow="2"
     inkscape:window-width="1600"
     inkscape:window-height="835"
     id="namedview3675"
     showgrid="false"
     inkscape:zoom="0.67942388"
     inkscape:cx="92.816467"
     inkscape:cy="526.49595"
     inkscape:window-x="-3"
     inkscape:window-y="-3"
     inkscape:window-maximized="1"
     inkscape:current-layer="svg1095" />
  <metadata
     id="metadata3654">
    <rdf:RDF>
      <cc:Work
         rdf:about="">
        <dc:title></dc:title>
        <dc:description>Just a Work In Progess sign</dc:description>
        <dc:subject>
          <rdf:Bag>
            <rdf:li />
            <rdf:li>work</rdf:li>
            <rdf:li>signs_and_symbols</rdf:li>
            <rdf:li>road</rdf:li>
            <rdf:li>activity</rdf:li>
            <rdf:li>sign</rdf:li>
          </rdf:Bag>
        </dc:subject>
        <dc:publisher>
          <cc:Agent
             rdf:about="http://www.openclipart.org">
            <dc:title>Tristan Le Toullec</dc:title>
          </cc:Agent>
        </dc:publisher>
        <dc:creator>
          <cc:Agent>
            <dc:title>Tristan Le Toullec</dc:title>
          </cc:Agent>
        </dc:creator>
        <dc:rights>
          <cc:Agent>
            <dc:title>Tristan Le Toullec</dc:title>
          </cc:Agent>
        </dc:rights>
        <dc:date />
        <dc:format>image/svg+xml</dc:format>
        <dc:type
           rdf:resource="http://purl.org/dc/dcmitype/StillImage" />
        <cc:license
           rdf:resource="http://web.resource.org/cc/PublicDomain" />
        <dc:language>en</dc:language>
      </cc:Work>
      <cc:License
         rdf:about="http://web.resource.org/cc/PublicDomain">
        <cc:permits
           rdf:resource="http://web.resource.org/cc/Reproduction" />
        <cc:permits
           rdf:resource="http://web.resource.org/cc/Distribution" />
        <cc:permits
           rdf:resource="http://web.resource.org/cc/DerivativeWorks" />
      </cc:License>
    </rdf:RDF>
  </metadata>
  <defs
     id="defs3" />
  <g
     id="g3725"
     inkscape:export-filename="/home/tomek/btgt/images/work_in_progress.png"
     inkscape:export-xdpi="600"
     inkscape:export-ydpi="600">
    <path
       inkscape:connector-curvature="0"
       style="fill:#000000;fill-opacity:1;fill-rule:evenodd;stroke:#000000;stroke-width:1.99842091pt;stroke-linecap:butt;stroke-linejoin:miter;stroke-opacity:1"
       id="path1704"
       d="m 231.76419,725.15822 c 0.16788,-3.50128 8.38809,-11.63653 7.21934,-15.92542 -1.21254,-4.44965 1.88816,-2.84633 1.69628,-10.01958 0.42361,-4.66353 10.17469,-7.64369 13.18206,-7.97475 7.068,-0.77811 5.01273,-3.47984 10.61447,0.63145 7.28497,5.34667 8.20431,2.88652 11.60055,9.61658 3.32464,6.58817 -2.62511,14.63822 6.39705,11.65847 4.92285,-1.62586 7.16253,-4.77956 10.27034,-7.77327 2.47131,-2.38058 4.45704,-6.11248 5.77707,-7.77327 3.74168,-4.7077 8.68636,3.9095 11.55411,7.0666 3.51296,3.86741 6.16634,6.69581 8.34464,9.89327 2.10777,3.09393 3.00349,5.52775 4.49328,8.47994 1.87714,3.71978 12.3848,7.33912 15.40548,9.18662 3.49821,2.13952 6.56192,4.00468 10.27036,7.06662 6.16655,5.09157 9.31782,7.08767 9.71862,9.51439 4.70203,2.93426 -19.56012,2.15605 -21.27276,2.49885 -3.81246,0.76313 -8.32618,0 -12.19601,0 -3.85137,0 -7.70276,0 -11.55413,0 -4.70725,0 -9.41447,0 -14.1217,0 -7.40832,0 -15.62783,-1.91162 -23.10825,-2.82665 -3.4414,-0.42096 -5.35424,-0.30676 -8.98655,-0.70665 -3.1359,-0.34525 -6.47401,0 -9.62844,0 -4.06532,0 -8.13066,0 -12.19601,0 -3.46117,0 -5.99741,1.01358 -9.62844,1.41331 -3.13007,0.34459 -6.30348,0.70668 -9.62843,0.70668 -5.38409,0 -22.86436,2.12772 -26.79588,-0.75775 -4.09574,-3.006 20.45747,-3.2591 18.81729,-7.77328 -0.89335,-2.45877 1.13381,-8.4825 2.20153,-9.13552 2.28142,-1.39535 4.80393,-2.64434 6.41896,-3.53333 0.10319,-0.0568 4.15401,-2.8582 5.13517,-3.53331 z" />
    <g
       transform="matrix(1.087352,0,0,1.13419,0.05136353,-15.734177)"
       id="g6388">
      <path
         inkscape:connector-curvature="0"
         style="fill:none;stroke:#000000;stroke-width:21.45938873;stroke-linecap:round;stroke-linejoin:round;stroke-miterlimit:4;stroke-opacity:1;marker-start:none"
         id="path1061"
         d="m 419.24513,474.95937 c -3.35866,93.98962 -3.493,97.74919 -3.493,97.74919" />
      <g
         id="g6379">
        <g
           transform="translate(0,-3.750091)"
           id="g3013">
          <path
             inkscape:connector-curvature="0"
             style="fill:none;stroke:#000000;stroke-width:21.45510292;stroke-linecap:round;stroke-linejoin:round;stroke-miterlimit:4;stroke-opacity:1;marker-start:none"
             id="path1683"
             d="m 416.02821,574.98928 c 33.93878,86.96857 35.29633,90.44731 35.29633,90.44731" />
          <path
             inkscape:connector-curvature="0"
             style="fill:none;stroke:#000000;stroke-width:21.45510292;stroke-linecap:round;stroke-linejoin:round;stroke-miterlimit:4;stroke-opacity:1;marker-start:none"
             id="path1684"
             d="m 415.22926,571.60845 c -9.93472,93.47017 -10.3321,97.20897 -10.3321,97.20897" />
          <path
             inkscape:connector-curvature="0"
             style="fill:none;stroke:#000000;stroke-width:21.45938873;stroke-linecap:round;stroke-linejoin:miter;stroke-miterlimit:4;stroke-opacity:1"
             id="path1685"
             d="m 411.61759,511.76523 c -52.13902,52.20376 -52.6964,52.4091 -52.6964,52.4091" />
          <path
             inkscape:connector-curvature="0"
             transform="matrix(1.753573,0,0,1.910932,-249.3806,-33.92012)"
             style="fill:#000000;fill-opacity:1;stroke:#000000;stroke-width:11.92500019;stroke-linecap:round;stroke-linejoin:round;stroke-miterlimit:4;stroke-opacity:1"
             id="path1686"
             d="m 391.27616,263.91208 a 9.2679539,8.5939207 0 1 1 -18.5359,0 9.2679539,8.5939207 0 1 1 18.5359,0 z" />
          <path
             inkscape:connector-curvature="0"
             style="fill:none;stroke:#000000;stroke-width:6.86070585;stroke-linecap:square;stroke-linejoin:miter;stroke-miterlimit:4;stroke-opacity:1"
             id="path1687"
             d="M 359.37132,539.90039 C 326.21035,641.96066 326.16001,642.58143 326.16001,642.58143" />
          <rect
             y="293.41031"
             x="531.71094"
             width="19.685738"
             transform="matrix(0.78104,0.624481,-0.30171,0.9534,0,0)"
             style="fill:#000000;fill-opacity:1;stroke:#000000;stroke-width:5.48924541;stroke-linecap:square;stroke-linejoin:round;stroke-miterlimit:4;stroke-opacity:1"
             id="rect1688"
             height="42.699669" />
        </g>
        <path
           inkscape:connector-curvature="0"
           style="fill:none;stroke:#000000;stroke-width:21.45938873;stroke-linecap:round;stroke-linejoin:miter;stroke-miterlimit:4;stroke-opacity:1"
           id="path1707"
           d="m 416.91724,530.48833 c -0.0118,1.96051 -2.29738,5.32242 -3.92106,7.80398 -2.03621,3.112 -4.26895,6.28323 -6.36319,9.1213 -2.0266,2.74641 -3.73682,5.20639 -5.30492,7.33143 -1.77134,2.40048 -2.62616,3.6667 -4.24661,5.54151 -1.91444,2.21491 -2.96416,3.02105 -5.01998,4.73961 -0.83312,0.69644 -6.13968,1.17305 -7.04142,1.36019 -2.51297,0.5216 -5.66458,-0.33848 -8.43882,-0.7304 -2.75829,-0.38971 -5.51242,-0.80679 -8.6016,-1.86169 -2.99369,-1.0223 -6.00251,-0.42832 -8.58808,-0.24359 -1.73113,0.12368 -5.24974,-1.304 -5.68466,-1.40339" />
      </g>
    </g>
    <path
       d="m 366.41637,243.68297 -276.842209,519.8138 0.90155,1.70366 550.182289,0 -274.24163,-521.51746 z"
       id="rect2378"
       style="fill:none;stroke:#000000;stroke-width:14.93819237;stroke-linecap:round;stroke-linejoin:round;stroke-miterlimit:4;stroke-opacity:1;display:block"
       inkscape:connector-curvature="0" />
    <text
       id="text3003"
       space="preserve"
       style="font-size:59.07988358px;font-style:normal;font-variant:normal;font-weight:normal;font-stretch:condensed;writing-mode:lr-tb;text-anchor:start;fill:#000000;fill-opacity:1;stroke:none;display:block;font-family:Impact"
       transform="matrix(0.44756017,-0.87085791,0.90837031,0.46683897,0,0)"
       x="-548.60706"
       y="500.28055">
      <tspan
         id="tspan3004"
         x="-548.60706"
         y="500.28055">Work In Progress</tspan>
    </text>
  </g>
</svg>
